<svg xmlns="http://www.w3.org/2000/svg" width="19" height="20" fill="none"><path fill="#151439" fill-opacity=".4" d="M12.64 17.358a8.118 8.118 0 0 1-3.143.638 8.09 8.09 0 0 1-5.132-1.841s.11.073.184.135c1.547-3.364 6.323-5.034 6.323-5.034.012 0 .037-.012.049-.012 1.13 2.946 1.596 5.402 1.719 6.114Zm-2.271-7.452c-.099.037-.21.061-.32.098 0 0-4.346 1.4-6.543 5.316a8.046 8.046 0 0 1-2.063-5.377c0-.086 0-.172.013-.258.135 0 4.112.098 8.262-1.142.233.454.454.909.65 1.363ZM9.055 7.303c-3.867 1.02-7.231.982-7.44.982A8.066 8.066 0 0 1 6.06 2.663c.11.147 1.596 2.16 2.996 4.64Zm8.397 3.916a8.086 8.086 0 0 1-3.45 5.402 35.938 35.938 0 0 0-1.57-5.758c2.602-.405 4.848.307 5.02.356ZM7.57 2.122c-.012 0-.024.013-.024.013.012-.013.012-.013.024-.013Zm7.244 1.78c-.025.037-1.167 1.78-4.199 2.91a39.327 39.327 0 0 0-3.02-4.69 7.992 7.992 0 0 1 7.219 1.78Zm2.737 5.955c-.098-.013-2.835-.614-5.61-.258-.061-.135-.11-.282-.172-.418a33.74 33.74 0 0 0-.54-1.166c3.18-1.301 4.469-3.167 4.493-3.192a8.072 8.072 0 0 1 1.83 5.034Zm1.375.086c0-5.206-4.223-9.429-9.428-9.429C4.292.514.068 4.737.068 9.943c0 5.205 4.224 9.428 9.429 9.428s9.428-4.223 9.428-9.428Z"/></svg>