<svg xmlns="http://www.w3.org/2000/svg" width="21" height="16" fill="none"><path fill="#151439" fill-opacity=".4" d="M20.173 1.952a7.95 7.95 0 0 1-2.284.613A3.955 3.955 0 0 0 19.632.38a7.807 7.807 0 0 1-2.516.958A3.956 3.956 0 0 0 14.218.086a3.964 3.964 0 0 0-3.965 3.965c0 .307.037.614.098.908A11.271 11.271 0 0 1 2.175.81a3.936 3.936 0 0 0-.54 2.002c0 1.375.7 2.59 1.767 3.302A3.994 3.994 0 0 1 1.61 5.61v.05a3.966 3.966 0 0 0 3.18 3.89 4.192 4.192 0 0 1-1.044.136c-.258 0-.503-.025-.749-.061a3.972 3.972 0 0 0 3.708 2.75 7.941 7.941 0 0 1-4.923 1.694c-.332 0-.638-.013-.958-.05a11.206 11.206 0 0 0 6.09 1.78c7.292 0 11.282-6.04 11.282-11.282 0-.171 0-.343-.012-.515a8.524 8.524 0 0 0 1.989-2.05Z"/></svg>